<svg width="116" height="18" viewBox="0 0 116 18" fill="none" xmlns="http://www.w3.org/2000/svg">
<path id="Union" fill-rule="evenodd" clip-rule="evenodd" d="M56.1595 11.3068L62.5124 3.03327L59.3398 0.597168L54.1405 7.36833L50.2183 4.68205L48.6755 3.62539L47.5177 5.09378L40.9586 13.4121L44.0996 15.8888L49.5008 9.03888L53.443 11.7389L55.0058 12.8092L56.1595 11.3068ZM36.081 4.24288C36.4771 4.55288 36.7002 4.98739 36.7503 5.54642H40.3148C40.3048 4.57575 40.0566 3.72197 39.5703 2.98507C39.084 2.24817 38.3997 1.67644 37.5174 1.26988C36.64 0.858234 35.6048 0.652411 34.4116 0.652411C33.2435 0.652411 32.2032 0.855693 31.2908 1.26226C30.3784 1.66882 29.664 2.23547 29.1476 2.9622C28.6312 3.68893 28.3755 4.53509 28.3806 5.50068C28.3755 6.6848 28.7566 7.62498 29.5236 8.32122C30.2906 9.01237 31.3409 9.51295 32.6745 9.82296L34.2838 10.2041C34.8453 10.3362 35.3065 10.4811 35.6674 10.6386C36.0334 10.7911 36.3041 10.974 36.4796 11.1875C36.6551 11.3959 36.7453 11.6474 36.7503 11.9422C36.7453 12.2573 36.6475 12.5368 36.457 12.7807C36.2665 13.0246 35.9933 13.2152 35.6374 13.3524C35.2864 13.4897 34.8603 13.5583 34.359 13.5583C33.8125 13.5583 33.3312 13.4719 32.9151 13.2991C32.504 13.1263 32.1807 12.8722 31.945 12.5368C31.7094 12.2014 31.5766 11.7821 31.5465 11.279H27.982C27.997 12.4987 28.2703 13.5074 28.8017 14.3053C29.3331 15.1032 30.0776 15.6978 31.0351 16.0891C31.9927 16.4804 33.1157 16.6761 34.4041 16.6761C35.6875 16.6761 36.7829 16.4881 37.6903 16.112C38.6027 15.7359 39.3021 15.1947 39.7884 14.4883C40.2747 13.7819 40.5204 12.9357 40.5254 11.9498C40.5204 11.3247 40.4151 10.7606 40.2095 10.2575C40.004 9.75435 39.7007 9.30967 39.2996 8.92344C38.9035 8.5372 38.4122 8.20433 37.8257 7.92482C37.2441 7.6453 36.5723 7.42169 35.8103 7.25399L34.4868 6.94906C34.1359 6.87283 33.82 6.7839 33.5393 6.68226C33.2585 6.58062 33.0179 6.46373 32.8174 6.3316C32.6218 6.19438 32.4714 6.03684 32.3662 5.85896C32.2659 5.68109 32.2208 5.47527 32.2308 5.2415C32.2358 4.9569 32.3185 4.70534 32.479 4.48681C32.6394 4.2632 32.88 4.08787 33.2009 3.96082C33.5217 3.83377 33.9228 3.77025 34.4041 3.77025C35.131 3.77025 35.69 3.92779 36.081 4.24288ZM7.05384 0.865857H10.7236V11.6601C10.7186 12.6714 10.4805 13.5557 10.0092 14.3129C9.53795 15.0651 8.88622 15.6495 8.054 16.0663C7.2268 16.483 6.26925 16.6913 5.18136 16.6913C4.2188 16.6913 3.34397 16.5211 2.55688 16.1806C1.7748 15.8401 1.15064 15.3116 0.684401 14.595C0.223174 13.8784 -0.00493247 12.9611 8.08601e-05 11.8431H3.70744C3.72248 12.2446 3.79768 12.5876 3.93304 12.8722C4.07341 13.1517 4.26643 13.3626 4.51208 13.5049C4.75773 13.6472 5.05101 13.7183 5.39192 13.7183C5.74787 13.7183 6.04867 13.6421 6.29432 13.4897C6.53997 13.3321 6.72547 13.1009 6.8508 12.796C6.98115 12.491 7.04883 12.1124 7.05384 11.6601V0.865857ZM22.3777 0.865857H26.0926V10.9359C26.0926 12.0997 25.8194 13.1136 25.2729 13.9775C24.7265 14.8364 23.9644 15.5021 22.9868 15.9748C22.0092 16.4423 20.8737 16.6761 19.5803 16.6761C18.2718 16.6761 17.1288 16.4423 16.1512 15.9748C15.1736 15.5021 14.414 14.8364 13.8726 13.9775C13.3312 13.1136 13.0604 12.0997 13.0604 10.9359V0.865857H16.7828V6.42989C17.1453 6.15745 17.6385 5.95577 18.3087 5.92964C18.8665 5.90789 19.4669 6.39655 20.0631 6.88183C20.5956 7.31529 21.1248 7.74605 21.6175 7.80796C21.885 7.84158 22.141 7.79639 22.3777 7.70524V0.865857ZM73.2082 6.52827H76.9682C76.878 5.59317 76.6448 4.76226 76.2688 4.03553C75.8928 3.3088 75.404 2.69641 74.8024 2.19837C74.2008 1.69525 73.504 1.31409 72.7119 1.05491C71.9198 0.790643 71.0575 0.65851 70.125 0.65851C68.7564 0.65851 67.5206 0.968515 66.4176 1.58852C65.3147 2.20853 64.4399 3.11568 63.7932 4.30996C63.1464 5.50424 62.8231 6.96024 62.8231 8.67798C62.8231 10.3906 63.1414 11.8441 63.7781 13.0384C64.4148 14.2326 65.2821 15.1423 66.38 15.7674C67.483 16.3874 68.7313 16.6974 70.125 16.6974C71.1828 16.6974 72.1203 16.5348 72.9375 16.2096C73.7597 15.8843 74.4565 15.4473 75.028 14.8984C75.5996 14.3445 76.0482 13.7321 76.3741 13.0612C76.705 12.3904 76.903 11.7094 76.9682 11.0183L73.2082 10.9954C73.143 11.3715 73.0252 11.7094 72.8548 12.0093C72.6893 12.304 72.4762 12.5556 72.2156 12.7639C71.9599 12.9672 71.6616 13.1222 71.3207 13.2289C70.9848 13.3357 70.6113 13.389 70.2002 13.389C69.4682 13.389 68.8341 13.2137 68.2976 12.863C67.7662 12.5073 67.3526 11.9813 67.0568 11.2851C66.7661 10.5837 66.6207 9.71471 66.6207 8.67798C66.6207 7.68189 66.7636 6.83319 67.0493 6.13187C67.3401 5.43055 67.7537 4.89439 68.2901 4.5234C68.8316 4.15241 69.4758 3.96692 70.2228 3.96692C70.6439 3.96692 71.0274 4.0279 71.3733 4.14987C71.7242 4.26676 72.0276 4.43701 72.2832 4.66062C72.5389 4.88423 72.7445 5.15358 72.8999 5.46866C73.0553 5.78375 73.1581 6.13695 73.2082 6.52827ZM105.871 16.4839V0.871894H109.593V13.4195H116V16.4839H105.871ZM103.742 9.86098H103.734V11.1174H101.318C101.192 11.9486 100.988 12.7122 100.704 13.4083C100.196 14.6483 99.4444 15.6172 98.4484 16.3152C97.4457 17.0063 96.2058 17.3689 94.7285 17.4027V13.144C95.417 13.0966 95.9919 12.8967 96.4531 12.5443C96.906 12.1864 97.2495 11.7108 97.4834 11.1174H92.1878L92.1717 11.1823C91.7506 12.9373 91.0922 14.323 90.1964 15.3394C89.3007 16.3558 88.0942 16.8607 86.5768 16.8539C85.3335 16.8607 84.2473 16.5252 83.3182 15.8476C82.389 15.1633 81.6637 14.2248 81.1424 13.0322C80.8812 12.4347 80.6854 11.7965 80.555 11.1174H78.0581V7.18185H80.4892C80.615 6.35899 80.8327 5.60545 81.1424 4.92124C81.6637 3.76253 82.389 2.86132 83.3182 2.21759C84.2473 1.57387 85.3235 1.24184 86.5467 1.22151V5.43961C85.7379 5.52092 85.1096 5.86989 84.6617 6.48651C84.5114 6.69348 84.3863 6.92526 84.2864 7.18185H89.273L89.274 7.17767C89.4745 6.26967 89.7419 5.43622 90.0761 4.6773C90.4103 3.91838 90.8214 3.2611 91.3094 2.70547C91.7974 2.14983 92.3722 1.71955 93.034 1.41463C93.6957 1.10293 94.4544 0.943691 95.31 0.936918C96.5667 0.943691 97.6563 1.26894 98.5787 1.91267C99.4945 2.54962 100.206 3.47116 100.714 4.6773C101.024 5.41786 101.238 6.25271 101.356 7.18185H103.734V8.19407H103.742V9.86098ZM97.5268 7.18185H93.2585C93.2837 7.11786 93.3091 7.05548 93.3348 6.99471C93.5554 6.46618 93.8228 6.06639 94.1369 5.79535C94.4511 5.51753 94.8388 5.37862 95.3 5.37862C95.7947 5.37862 96.2325 5.53108 96.6135 5.83601C96.9945 6.14093 97.292 6.57121 97.5059 7.12684C97.513 7.14507 97.52 7.16341 97.5268 7.18185ZM85.1029 11.9548C84.8295 11.7469 84.6036 11.4678 84.4254 11.1174H88.1183C88.0676 11.2105 88.015 11.2999 87.9605 11.3856C87.76 11.6905 87.5227 11.9311 87.2486 12.1073C86.9745 12.2767 86.6537 12.3546 86.286 12.341C85.8449 12.341 85.4505 12.2123 85.1029 11.9548Z" fill="#2756F1"/>
</svg>
